HIERARCHY
ROOT Hips
{
	OFFSET 0.000000 0.000000 0.000000 
	CHANNELS 6 Xposition Yposition Zposition Yrotation Zrotation Xrotation 
	JOINT Lumbar
	{
		OFFSET 0.000000 0.000000 0.000000 
		CHANNELS 3 Zrotation Xrotation Yrotation
		JOINT Neck
		{
			OFFSET 0.000000 0.445665 0.000000 
			CHANNELS 3 Zrotation Xrotation Yrotation
			End Site
			{
				OFFSET 0.000000 0.227535 0.000000 
			}
		}
		JOINT RightShoulder
		{
			OFFSET 0.019635 0.377685 0.194865 
			CHANNELS 3 Zrotation Xrotation Yrotation
			JOINT RightElbow
			{
				OFFSET 0.000000 -0.243375 0.000000 
				CHANNELS 2 Zrotation Yrotation
				JOINT RightWrist
				{
					OFFSET 0.000000 -0.264825 0.000000 
					CHANNELS 2 Zrotation Xrotation
					End Site
					{
						OFFSET 0.006600 -0.176220 0.000990 
					}
				}
			}
		}
		JOINT LeftShoulder
		{
			OFFSET 0.019635 0.377685 -0.194865 
			CHANNELS 3 Zrotation Xrotation Yrotation
			JOINT LeftElbow
			{
				OFFSET 0.000000 -0.243375 0.000000 
				CHANNELS 2 Zrotation Yrotation
				JOINT LeftWrist
				{
					OFFSET 0.000000 -0.264825 0.000000 
					CHANNELS 2 Zrotation Xrotation
					End Site
					{
						OFFSET 0.006600 -0.176220 -0.000990 
					}
				}
			}
		}
	}
	JOINT RightHip
	{
		OFFSET 0.052140 -0.069960 0.075570 
		CHANNELS 3 Zrotation Xrotation Yrotation
		JOINT RightKnee
		{
			OFFSET 0.000000 -0.402270 0.000000 
			CHANNELS 1 Zrotation
			JOINT RightAnkle
			{
				OFFSET 0.000000 -0.404085 0.000000 
				CHANNELS 3 Zrotation Xrotation Yrotation
				End Site
				{
					OFFSET 0.204105 -0.089430 0.008415 
				}
			}
		}
	}
	JOINT LeftHip
	{
		OFFSET 0.052140 -0.069960 -0.075570 
		CHANNELS 3 Zrotation Xrotation Yrotation
		JOINT LeftKnee
		{
			OFFSET 0.000000 -0.402270 0.000000 
			CHANNELS 1 Zrotation
			JOINT LeftAnkle
			{
				OFFSET 0.000000 -0.404085 0.000000 
				CHANNELS 3 Zrotation Xrotation Yrotation
				End Site
				{
					OFFSET 0.204105 -0.089430 -0.008415 
				}
			}
		}
	}
}
MOTION
Frames: 17
Frame Time: 0.02
-0 0.95578 0 208.20168 0 -3.30478 6.29035 4.77569 -2.1791 -16.38402 -4.2964 -3.26814 -7.05651 -7.68041 11.46078 92.08456 100.75161 28.03442 -1.06039 -3.86502 16.83657 -14.25905 88.32123 -87.57883 38.41243 3.05201 -4.9656 6.82514 2.39454 -3.82286 1.1797 -4.04898 -5.99328 -3.42084 0.98536 -12.87682 -4.79229 4.7925 4.90996 6.04319
0.00023 0.95579 -7e-05 208.18416 0 -3.30824 6.30588 4.76454 -2.1474 -16.40753 -4.26256 -3.32423 -7.03894 -7.75513 11.43966 92.07921 100.70864 28.11612 -1.0877 -3.87916 16.80224 -14.04161 88.35796 -87.83046 39.18864 3.03273 -4.94257 6.82563 2.43015 -3.83722 1.17249 -4.05379 -6.01342 -3.4175 0.98637 -12.89949 -4.77486 4.7757 4.89022 6.07678
0.00047 0.9558 -0.00013 208.16666 0 -3.31169 6.32141 4.75341 -2.11568 -16.43104 -4.229 -3.38014 -7.02146 -7.82918 11.41845 92.07382 100.66512 28.19752 -1.11484 -3.89297 16.76817 -13.82585 88.39454 -88.08013 39.95905 3.0136 -4.91957 6.82615 2.4656 -3.85153 1.16523 -4.05857 -6.03342 -3.41406 0.9874 -12.92185 -4.75758 4.75896 4.8706 6.11006
0.0007 0.95581 -0.0002 208.14932 0 -3.31512 6.33707 4.74225 -2.08381 -16.45485 -4.19608 -3.43593 -7.00409 -7.90144 11.39658 92.0683 100.61869 28.27926 -1.14152 -3.90557 16.73473 -13.61493 88.43075 -88.32436 40.71338 2.99491 -4.89653 6.82677 2.50054 -3.86577 1.15777 -4.06337 -6.05313 -3.41041 0.98855 -12.94325 -4.74052 4.74227 4.8513 6.14225
0.00094 0.95582 -0.00026 208.13144 0 -3.31861 6.35198 4.73123 -2.05302 -16.47717 -4.15959 -3.49242 -6.98609 -7.98335 11.37807 92.06357 100.58728 28.36008 -1.17056 -3.92452 16.69787 -13.37862 88.46878 -88.59729 41.55237 2.97391 -4.87381 6.82683 2.53793 -3.88037 1.15147 -4.06819 -6.07442 -3.40811 0.98912 -12.9698 -4.72204 4.72529 4.83029 6.17996
0.00118 0.95583 -0.00034 208.11453 0 -3.32201 6.3685 4.71996 -2.0198 -16.50255 -4.13079 -3.54733 -6.96948 -8.04466 11.35256 92.05712 100.5244 28.44217 -1.19463 -3.93007 16.66835 -13.1961 88.50299 -88.80933 42.21179 2.9578 -4.85034 6.8281 2.57027 -3.89419 1.14263 -4.07288 -6.0923 -3.40282 0.99091 -12.98538 -4.70675 4.70895 4.81294 6.20613
0.00143 0.95586 -0.00051 208.10152 0 -3.325 6.38969 4.70737 -1.98001 -16.53763 -4.12249 -3.5997 -6.95598 -8.04971 11.30578 92.0457 100.3675 28.53546 -1.20464 -3.89697 16.65866 -13.1638 88.52655 -88.85247 42.37285 2.95525 -4.82484 6.83273 2.58782 -3.90623 1.12699 -4.07817 -6.10149 -3.39008 0.99619 -12.97035 -4.6987 4.69388 4.80555 6.19868
0.0017 0.95589 -0.0007 208.08928 0 -3.32794 6.41246 4.69462 -1.93767 -16.57541 -4.12213 -3.6502 -6.94402 -8.03387 11.25232 92.03242 100.17997 28.62886 -1.2097 -3.85069 16.65654 -13.18541 88.54627 -88.83453 42.35328 2.9576 -4.7985 6.83861 2.60048 -3.91747 1.10871 -4.0832 -6.10715 -3.37416 1.00269 -12.94432 -4.69413 4.67949 4.80186 6.17988
0.00196 0.95592 -0.00089 208.07587 0 -3.33102 6.43443 4.68232 -1.8964 -16.61144 -4.11856 -3.70047 -6.93177 -8.02718 11.20303 92.02031 100.01085 28.71721 -1.21726 -3.81135 16.65113 -13.18127 88.56786 -88.8448 42.41811 2.95769 -4.77251 6.84395 2.61592 -3.92879 1.09146 -4.0877 -6.1139 -3.35917 1.00856 -12.92343 -4.68902 4.66513 4.79657 6.1674
0.00222 0.95595 -0.00106 208.06584 0 -3.3336 6.45688 4.66842 -1.85561 -16.65047 -4.11315 -3.75535 -6.9177 -8.02189 11.14867 92.00742 99.82277 28.82618 -1.2238 -3.76764 16.64474 -13.18259 88.58899 -88.85228 42.47307 2.95801 -4.74679 6.84917 2.6289 -3.94112 1.07496 -4.09481 -6.12262 -3.34636 1.01473 -12.90175 -4.67966 4.6495 4.79098 6.15005
0.00249 0.95598 -0.00126 208.04905 0 -3.33721 6.47854 4.65784 -1.81309 -16.68289 -4.11365 -3.80012 -6.90794 -8.00877 11.10366 91.99495 99.66694 28.89278 -1.23125 -3.73035 16.64265 -13.18514 88.61008 -88.85213 42.50579 2.95891 -4.72013 6.85494 2.646 -3.95138 1.05623 -4.09658 -6.12665 -3.32825 1.02061 -12.87934 -4.67982 4.63651 4.78685 6.14013
0.0028 0.95602 -0.0015 208.01214 0 -3.34381 6.4989 4.65626 -1.7671 -16.70382 -4.12681 -3.81767 -6.90851 -7.97892 11.08259 91.99067 99.60755 28.83793 -1.24262 -3.71021 16.64672 -13.17804 88.63273 -88.83823 42.52147 2.96089 -4.69235 6.86169 2.67465 -3.95445 1.03211 -4.08244 -6.1164 -3.29628 1.02506 -12.85567 -4.70672 4.63191 4.7861 6.15367
0.00312 0.95605 -0.00176 207.96847 0 -3.35144 6.51803 4.6581 -1.71913 -16.71581 -4.14602 -3.82493 -6.91378 -7.94209 11.07165 91.98557 99.58195 28.74144 -1.25499 -3.69767 16.65564 -13.16924 88.65533 -88.8212 42.52164 2.96305 -4.66327 6.86899 2.708 -3.95588 1.00574 -4.06318 -6.10201 -3.25904 1.02924 -12.83195 -4.74283 4.62964 4.78665 6.17508
0.00344 0.95609 -0.00201 207.92889 0 -3.35848 6.53711 4.65841 -1.67183 -16.72806 -4.16347 -3.83695 -6.91744 -7.90845 11.05862 91.97664 99.54059 28.66669 -1.26681 -3.68421 16.66478 -13.16242 88.6775 -88.80928 42.52797 2.9648 -4.63413 6.87613 2.73959 -3.959 0.98044 -4.04708 -6.09086 -3.22427 1.03371 -12.80963 -4.77385 4.62556 4.78644 6.19276
0.00375 0.95612 -0.00225 207.88565 0 -3.36597 6.55948 4.65841 -1.62616 -16.75982 -4.17669 -3.84912 -6.91813 -7.87345 11.03547 91.98571 99.49879 28.57933 -1.27902 -3.65973 16.66367 -13.15666 88.7015 -88.77541 42.52902 2.96848 -4.60826 6.88285 2.76858 -3.95767 0.95518 -4.02741 -6.0736 -3.18925 1.03744 -12.78137 -4.80878 4.62496 4.78708 6.21063
0.0041 0.95616 -0.00252 207.84765 0 -3.37286 6.57385 4.66014 -1.5757 -16.74455 -4.20048 -3.85782 -6.92711 -7.8406 11.03499 91.95673 99.46768 28.50923 -1.29052 -3.66001 16.68535 -13.14222 88.72168 -88.79265 42.54316 2.96767 -4.57459 6.89066 2.80524 -3.96576 0.92893 -4.014 -6.06844 -3.15329 1.04274 -12.76527 -4.83774 4.61729 4.78618 6.23022
0.00451 0.95622 -0.00286 207.83238 0 -3.37697 6.57349 4.66342 -1.52074 -16.63766 -4.24835 -3.86578 -6.94809 -7.80965 11.1009 91.82682 99.44713 28.48798 -1.30141 -3.72747 16.76579 -13.14871 88.73251 -88.90695 42.56594 2.95812 -4.5256 6.90057 2.85257 -3.99543 0.90407 -4.01888 -6.09481 -3.11821 1.05147 -12.78582 -4.84783 4.59272 4.78103 6.25179
